Coordinates
version=1
nRows=14
nColumns=36
inDegrees=yes

Units are S.I. units (second, meters, Newtons, ...)
If the header above contains a line with 'inDegrees', this indicates whether rotational values are in degrees (yes) or radians (no).

endheader
time	pelvis_tilt	pelvis_list	pelvis_rotation	pelvis_tx	pelvis_ty	pelvis_tz	hip_flexion_r	hip_adduction_r	hip_rotation_r	knee_angle_r	knee_angle_r_beta	ankle_angle_r	subtalar_angle_r	mtp_angle_r	hip_flexion_l	hip_adduction_l	hip_rotation_l	knee_angle_l	knee_angle_l_beta	ankle_angle_l	subtalar_angle_l	mtp_angle_l	lumbar_extension	lumbar_bending	lumbar_rotation	arm_flex_r	arm_add_r	arm_rot_r	elbow_flex_r	pro_sup_r	arm_flex_l	arm_add_l	arm_rot_l	elbow_flex_l	pro_sup_l
      0.00000000	      4.03642924	     -2.21522230	    -15.04044262	     -0.10655293	      0.97617794	      0.10081829	      0.64236586	      3.52929310	      2.26695904	      4.45071361	      0.07767961	     -1.32581950	      5.23992819	     -7.11019956	     -3.58920310	     -1.92872428	     -5.91934832	      2.73950023	      0.04781330	      2.52457199	     -3.55492853	     -7.11019956	     -6.83550633	      2.14056584	     -8.83569013	    -15.45845162	    -11.19614127	     -1.03096627	     47.67013185	     78.80893183	      0.74856501	    -16.01183910	      9.44322997	     41.70243432	     77.44762179
      0.01666670	      3.39789705	     -1.33093956	    -14.70198614	     -0.11021251	      0.96847337	      0.09795589	      1.61759205	      2.62054757	      3.12700008	      3.47166278	      0.06059195	     -0.06461633	      7.56738824	     -7.16196904	     -3.39739765	     -1.25960520	     -7.64884242	      1.53659986	      0.02681873	      2.90986716	     -2.37943211	     -7.16196904	     -4.58156676	      1.38235987	    -10.16054643	    -17.94764068	    -11.12218085	     -3.41193767	     57.24889617	     77.82540668	      0.81457228	    -15.01982507	      4.78965506	     44.92619087	     76.04797038
      0.03333330	      1.72605926	     -0.60307664	    -14.80243423	     -0.11091882	      0.96130901	      0.10036480	      3.62553327	      2.56069282	      2.62676888	      3.23050698	      0.05638298	      0.33816846	      7.67961006	     -7.25521156	     -1.11773955	     -1.04483722	     -9.41267637	      1.66483024	      0.02905677	      2.87890750	     -2.05914068	     -7.25521156	     -2.25997151	      0.56191653	    -11.72281005	    -17.95149368	    -11.34947484	     -3.98376184	     65.50497132	     85.66408752	     -0.59980734	    -14.54537244	     -2.03447975	     49.80026599	     82.66087205
      0.05000000	      0.86129101	     -0.49646085	    -14.30811005	     -0.10853721	      0.96309976	      0.09872088	      4.52967522	      2.65456894	      2.74012322	      3.24371682	      0.05661354	      0.83838317	      8.31215272	     -7.26616232	     -0.10585960	     -1.13999746	     -9.73029160	      1.44119058	      0.02515352	      2.91090095	     -1.37958686	     -7.26616232	     -1.10907987	      0.43384085	    -12.00380874	    -18.51065844	    -11.79025597	     -2.86190211	     74.41712858	     86.13976798	      0.33270451	    -14.33730947	     -2.95404267	     53.53996005	     82.83195481
      0.06666670	     -0.11236699	     -0.29529440	    -13.64965964	     -0.10775086	      0.95680921	      0.09973646	      5.47982003	      2.73683123	      2.98908762	      3.28207833	      0.05728307	      1.72349567	      7.97497872	     -7.27399603	      1.10513287	     -1.30458547	     -9.88314137	      1.47447766	      0.02573449	      3.37114828	     -0.57225605	     -7.27399603	      0.07370024	      0.19041301	    -12.08692298	    -19.20181473	    -12.40097062	      0.50555992	     84.94815436	     85.16182735	      1.82210431	    -14.24497869	     -2.24159044	     58.25683989	     81.45676338
      0.08333330	     -0.71238972	     -0.08365331	    -13.00714165	     -0.10874456	      0.95611139	      0.09806755	      6.06651465	      2.65945341	      3.08617250	      3.27391740	      0.05714064	      2.26096675	      7.84389195	     -7.37433532	      1.97985608	     -1.26561080	     -9.81145756	      1.55682908	      0.02717179	      4.05813195	      0.13483969	     -7.37433532	      0.56425245	     -0.08970430	    -12.25945504	    -18.56455312	    -12.76622180	      3.68421746	     94.19327443	     90.10436460	      3.39192705	    -14.31593287	     -1.05975011	     64.31405296	     80.42978209
      0.10000000	     -1.16881191	      0.21068217	    -12.50117542	     -0.11314331	      0.95215031	      0.09798153	      6.72317388	      2.45891140	      2.98694205	      3.34026429	      0.05829861	      2.43867129	      7.19604027	     -7.42772492	      2.90618001	     -1.13263881	     -9.87152079	      1.76105757	      0.03073625	      4.26738957	      0.53709150	     -7.42772492	      0.85453886	     -0.52871388	    -11.86283763	    -17.40181769	    -12.78019812	      6.91188747	    103.24156092	     90.10292752	      6.41133836	    -14.48496853	      1.91537616	     69.26328053	     78.03247368
      0.11666670	     -1.49569638	      0.42510558	    -11.66165585	     -0.11328774	      0.96069482	      0.09596354	      7.15865807	      2.26279730	      2.56075775	      3.26013665	      0.05690012	      2.15431439	      6.90871268	     -7.45130746	      3.66638829	     -0.93698550	     -9.69351472	      1.94981882	      0.03403076	      3.85310507	      0.95367988	     -7.45130746	      1.00936569	     -0.82999457	    -12.00272563	    -14.24623819	    -12.38360447	     10.48106065	    108.05141965	     90.94045714	      9.19468535	    -13.95573778	      4.37880238	     72.79780643	     76.38390099
      0.13333330	     -1.50494068	      0.49930325	    -10.98896381	     -0.11102345	      0.96860082	      0.09682333	      7.10776949	      2.16571549	      2.15070177	      3.17723414	      0.05545320	      1.06289611	      6.78938368	     -7.45476097	      3.88871099	     -0.83173341	     -9.80819902	      2.04615207	      0.03571209	      2.88824789	      1.44363026	     -7.45476097	      1.05024737	     -1.08077356	    -11.98365693	     -9.64562938	    -11.34890972	     14.60042389	    110.61100976	     88.67044346	     12.13064985	    -12.67828611	      6.72023387	     74.94811857	     74.76235585
      0.15000000	     -1.54537114	      0.56750219	    -10.37251056	     -0.11144284	      0.97681502	      0.09670099	      7.02101915	      2.06961877	      2.18994741	      3.04418979	      0.05313113	     -0.11296019	      6.60175196	     -7.46491860	      4.02056485	     -0.78652868	    -10.55004984	      2.03589952	      0.03553315	      1.83757175	      2.46694528	     -7.46491860	      1.07384307	     -1.14858101	    -13.44977174	     -2.55302712	    -10.19875135	     20.56958861	    108.63505010	     88.98242645	     13.58329262	    -11.41390525	      7.00911610	     76.97500819	     74.08164632
      0.16666670	     -1.56923307	      0.54851952	     -9.77253388	     -0.11281557	      0.96651680	      0.09693943	      6.89466979	      2.05042188	      1.90486764	      2.84734080	      0.04969547	     -0.57499545	      6.65546955	     -7.47000123	      4.04612332	     -0.83197948	    -10.48599772	      2.03691441	      0.03555086	      1.08372530	      2.24587054	     -7.47000123	      1.02798149	     -1.27925044	    -13.45605900	      2.47537595	     -8.32401879	     23.84573238	    109.69937098	     86.85740716	     16.68280124	    -10.12958055	     10.37695395	     79.76899939	     73.07551485
      0.18333330	     -1.52708051	      0.53128507	     -9.19966155	     -0.11228116	      0.97695813	      0.09457395	      6.68466473	      1.92160558	      1.92221671	      2.74519919	      0.04791276	     -1.25673784	      6.57197578	     -7.47850165	      3.95479555	     -0.84197385	    -10.96378535	      1.93616867	      0.03379252	      0.76437318	      3.75020557	     -7.47850165	      0.73465138	     -0.95135535	    -14.93056266	      8.95099667	     -5.86011055	     28.12931600	    106.54482586	     91.73859859	     18.31865441	     -9.98258601	     12.87569724	     82.97642000	     74.80518653
      0.20000000	     -1.41679053	      0.45886967	     -8.73438203	     -0.11408714	      0.97100335	      0.09293747	      6.55276777	      1.89294109	      1.66598943	      2.63550198	      0.04599819	     -1.49039484	      6.57970401	     -7.48240358	      3.83301013	     -0.86170264	    -11.27250635	      1.84307605	      0.03216775	      0.80192419	      4.60620016	     -7.48240358	      0.08382112	     -0.39128980	    -14.74203832	     14.72801380	     -3.45167828	     30.79406592	    105.33277862	     91.73804788	     21.56506904	     -9.56508564	     15.26100864	     85.13063850	     74.45258683
      0.21666670	     -1.35482327	      0.44710527	     -8.59475642	     -0.11253097	      0.96268230	      0.09240751	      6.52302692	      1.86568673	      1.48307207	      2.68332004	      0.04683277	     -1.48535364	      6.09310056	     -7.48567481	      3.70516629	     -0.81434375	    -11.49370307	      1.79731353	      0.03136904	      1.03453767	      5.01894986	     -7.48567481	     -0.22669037	     -0.05023421	    -13.65085348	     19.98842991	     -1.57402471	     32.81909489	    106.21169395	     90.56166525	     24.62367017	     -8.53810112	     18.38041536	     88.90058504	     73.93776782
